<svg xmlns="http://www.w3.org/2000/svg" id="canvas" viewBox="502.592 373.118 2209.484 893.493">
    <path
        d="M 608.18,376.95 C 605.49 378.35, 604.84 380.49, 604.60 384.37 C 604.36 388.25, 605.59 390.77, 606.97 396.35 C 608.36 401.93, 609.32 405.31, 611.54 412.26 C 613.77 419.22, 615.27 422.86, 618.09 431.12 C 620.91 439.38, 622.33 443.72, 625.65 453.57 C 628.96 463.42, 630.82 468.74, 634.64 480.35 C 638.46 491.96, 640.59 498.41, 644.75 511.61 C 648.90 524.81, 651.21 531.88, 655.42 546.36 C 659.62 560.85, 661.86 568.48, 665.78 584.03 C 669.71 599.58, 671.73 607.81, 675.03 624.13 C 678.34 640.44, 680.05 648.95, 682.31 665.60 C 684.56 682.25, 685.50 690.76, 686.30 707.38 C 687.10 723.99, 687.20 732.54, 686.29 748.69 C 685.37 764.83, 684.56 772.96, 681.73 788.09 C 678.90 803.23, 676.92 810.73, 672.12 824.35 C 667.33 837.97, 664.31 844.69, 657.74 856.20 C 651.18 867.70, 647.27 873.03, 639.30 881.86 C 631.33 890.69, 626.71 894.46, 617.89 900.33 C 609.06 906.20, 604.18 908.43, 595.18 911.23 C 586.18 914.03, 581.40 914.54, 572.87 914.32 C 564.34 914.11, 559.99 913.12, 552.53 910.16 C 545.07 907.21, 541.51 905.18, 535.56 899.54 C 529.61 893.91, 526.77 890.30, 522.77 881.99 C 518.77 873.67, 517.47 867.56, 515.56 857.99 C 513.65 848.42, 513.49 842.43, 513.22 834.14 C 512.95 825.85, 515.48 820.13, 514.20 816.53 C 512.93 812.92, 508.50 812.55, 506.83 816.13 C 505.16 819.70, 505.57 825.71, 505.85 834.38 C 506.14 843.05, 506.16 849.32, 508.24 859.47 C 510.33 869.62, 511.82 876.07, 516.29 885.14 C 520.75 894.21, 523.84 898.47, 530.56 904.82 C 537.28 911.18, 541.44 913.65, 549.88 916.93 C 558.32 920.21, 563.31 921.17, 572.76 921.24 C 582.21 921.31, 587.46 920.50, 597.13 917.27 C 606.80 914.05, 611.91 911.49, 621.13 905.11 C 630.35 898.72, 635.07 894.66, 643.23 885.36 C 651.40 876.05, 655.33 870.48, 661.96 858.57 C 668.59 846.67, 671.59 839.77, 676.39 825.83 C 681.19 811.89, 683.14 804.26, 685.95 788.87 C 688.75 773.49, 689.54 765.25, 690.42 748.91 C 691.31 732.58, 691.18 723.95, 690.37 707.18 C 689.56 690.41, 688.61 681.83, 686.36 665.05 C 684.11 648.28, 682.41 639.72, 679.14 623.30 C 675.88 606.89, 673.88 598.62, 670.05 582.97 C 666.22 567.32, 664.03 559.65, 659.98 545.07 C 655.93 530.49, 653.71 523.38, 649.78 510.07 C 645.86 496.77, 643.85 490.27, 640.36 478.56 C 636.87 466.84, 635.16 461.47, 632.34 451.50 C 629.53 441.53, 628.32 437.08, 626.28 428.72 C 624.24 420.36, 623.25 416.60, 622.13 409.71 C 621.02 402.83, 620.94 399.50, 620.72 394.30 C 620.50 389.10, 621.57 387.10, 621.04 383.72 C 620.51 380.33, 620.65 378.75, 618.08 377.40 C 615.51 376.05, 610.88 375.56, 608.18 376.95"
    />
    <path
        d="M 851.24,608.41 C 852.40 605.19, 851.78 603.12, 850.15 600.37 C 848.52 597.62, 846.51 597.08, 843.08 594.68 C 839.64 592.29, 837.49 590.33, 832.96 588.41 C 828.43 586.49, 825.75 585.30, 820.41 585.07 C 815.07 584.84, 812.03 585.04, 806.27 587.25 C 800.50 589.46, 797.63 591.05, 791.60 596.12 C 785.57 601.19, 782.48 604.14, 776.11 612.59 C 769.74 621.04, 766.18 626.06, 759.75 638.36 C 753.33 650.67, 749.81 658.22, 743.99 674.10 C 738.16 689.99, 735.20 699.56, 730.62 717.78 C 726.05 735.99, 723.90 746.66, 721.12 765.17 C 718.34 783.68, 717.35 793.81, 716.72 810.35 C 716.09 826.88, 716.44 834.99, 717.97 847.84 C 719.50 860.70, 720.76 866.29, 724.36 874.63 C 727.97 882.98, 730.36 886.61, 735.99 889.58 C 741.62 892.55, 746.15 892.50, 752.54 889.48 C 758.92 886.47, 761.82 883.01, 767.92 874.49 C 774.01 865.97, 776.94 860.13, 783.02 846.90 C 789.10 833.67, 792.32 825.27, 798.33 808.35 C 804.35 791.42, 807.40 781.04, 813.09 762.29 C 818.77 743.54, 821.66 732.72, 826.77 714.59 C 831.87 696.46, 834.41 687.02, 838.60 671.64 C 842.80 656.25, 844.83 647.86, 847.73 637.65 C 850.64 627.44, 852.95 623.62, 853.13 620.60 C 853.30 617.57, 849.51 617.41, 848.59 622.52 C 847.67 627.62, 848.64 633.19, 848.51 646.10 C 848.38 659.02, 848.22 668.93, 847.94 687.09 C 847.65 705.26, 847.37 716.95, 847.09 736.93 C 846.81 756.92, 846.49 768.16, 846.53 787.02 C 846.57 805.88, 846.55 815.60, 847.29 831.25 C 848.02 846.90, 848.56 854.17, 850.20 865.26 C 851.84 876.35, 852.07 880.80, 855.48 886.71 C 858.88 892.61, 862.44 895.37, 867.23 894.79 C 872.03 894.20, 874.85 890.97, 879.44 883.78 C 884.04 876.59, 885.64 871.41, 890.21 858.85 C 894.78 846.29, 897.10 838.01, 902.28 820.96 C 907.45 803.91, 910.30 793.21, 916.07 773.61 C 921.83 754.01, 925.06 742.44, 931.10 722.95 C 937.14 703.47, 940.41 692.95, 946.26 676.18 C 952.11 659.42, 955.25 651.15, 960.35 639.14 C 965.45 627.13, 969.05 621.58, 971.77 616.13 C 974.48 610.68, 972.98 610.13, 973.90 611.89 C 974.82 613.65, 975.71 615.89, 976.37 624.92 C 977.04 633.95, 977.43 641.61, 977.22 657.02 C 977.01 672.44, 976.42 683.10, 975.33 702.01 C 974.24 720.91, 973.24 732.42, 971.77 751.55 C 970.31 770.69, 969.28 781.03, 968.01 797.67 C 966.74 814.31, 965.97 822.58, 965.42 834.76 C 964.87 846.95, 963.84 851.99, 965.26 858.59 C 966.67 865.19, 969.45 868.21, 972.50 867.77 C 975.55 867.33, 977.59 864.22, 980.53 856.38 C 983.46 848.55, 984.04 842.40, 987.16 828.59 C 990.28 814.78, 991.89 805.39, 996.14 787.32 C 1000.39 769.25, 1002.86 757.93, 1008.40 738.25 C 1013.95 718.56, 1017.32 707.39, 1023.87 688.90 C 1030.42 670.41, 1034.24 660.87, 1041.16 645.81 C 1048.08 630.75, 1051.93 623.88, 1058.46 613.58 C 1064.99 603.29, 1068.69 599.31, 1073.81 594.34 C 1078.94 589.36, 1080.78 588.57, 1084.11 588.71 C 1087.43 588.85, 1087.90 589.14, 1090.46 595.04 C 1093.03 600.94, 1094.95 606.11, 1096.94 618.21 C 1098.92 630.32, 1099.78 638.74, 1100.40 655.56 C 1101.01 672.39, 1100.64 683.09, 1100.00 702.35 C 1099.36 721.60, 1098.52 732.90, 1097.19 751.82 C 1095.86 770.74, 1094.83 780.87, 1093.34 796.93 C 1091.85 812.98, 1090.77 820.75, 1089.72 832.08 C 1088.67 843.42, 1086.95 848.03, 1088.11 853.59 C 1089.26 859.15, 1092.89 861.26, 1095.48 859.90 C 1098.08 858.55, 1098.73 855.14, 1101.07 846.82 C 1103.41 838.49, 1104.13 832.18, 1107.19 818.29 C 1110.25 804.39, 1111.87 794.94, 1116.37 777.36 C 1120.87 759.78, 1123.71 748.86, 1129.68 730.40 C 1135.66 711.94, 1139.30 701.74, 1146.24 685.05 C 1153.18 668.36, 1157.21 659.94, 1164.38 646.94 C 1171.54 633.93, 1175.60 628.22, 1182.09 620.01 C 1188.57 611.80, 1192.27 609.16, 1196.81 605.88 C 1201.36 602.59, 1202.00 602.30, 1204.81 603.59 C 1207.62 604.88, 1208.54 605.58, 1210.86 612.31 C 1213.18 619.03, 1214.68 624.53, 1216.39 637.21 C 1218.10 649.89, 1218.76 658.45, 1219.43 675.70 C 1220.09 692.95, 1219.91 703.85, 1219.71 723.46 C 1219.51 743.08, 1218.94 754.32, 1218.41 773.76 C 1217.88 793.20, 1217.32 803.54, 1217.04 820.67 C 1216.76 837.80, 1216.54 846.03, 1216.99 859.43 C 1217.44 872.83, 1217.80 878.59, 1219.31 887.67 C 1220.81 896.74, 1221.41 899.62, 1224.50 904.79 C 1227.59 909.95, 1230.08 912.98, 1234.76 913.50 C 1239.45 914.03, 1243.43 911.09, 1247.92 907.41 C 1252.40 903.72, 1254.38 900.03, 1257.20 895.09 C 1260.01 890.15, 1263.29 886.29, 1261.97 882.69 C 1260.66 879.09, 1254.17 876.15, 1250.61 877.10 C 1247.06 878.06, 1246.72 883.30, 1244.20 887.47 C 1241.67 891.64, 1239.86 894.93, 1237.97 897.93 C 1236.09 900.94, 1236.04 901.98, 1234.77 902.50 C 1233.51 903.02, 1233.54 903.74, 1231.64 900.53 C 1229.74 897.32, 1227.27 894.73, 1225.27 886.46 C 1223.28 878.20, 1222.51 872.35, 1221.66 859.20 C 1220.81 846.05, 1220.92 837.78, 1221.03 820.72 C 1221.13 803.65, 1221.66 793.30, 1222.20 773.87 C 1222.74 754.43, 1223.33 743.18, 1223.72 723.52 C 1224.12 703.87, 1224.45 692.97, 1224.19 675.57 C 1223.93 658.17, 1223.68 649.67, 1222.43 636.52 C 1221.18 623.36, 1220.87 617.86, 1217.95 609.80 C 1215.03 601.74, 1212.84 598.14, 1207.82 596.22 C 1202.80 594.30, 1198.85 596.11, 1192.85 600.22 C 1186.84 604.33, 1184.25 607.83, 1177.79 616.77 C 1171.33 625.70, 1167.58 631.52, 1160.54 644.87 C 1153.51 658.23, 1149.54 666.69, 1142.61 683.55 C 1135.67 700.40, 1132.02 710.63, 1125.88 729.15 C 1119.73 747.68, 1116.80 758.62, 1111.88 776.15 C 1106.95 793.69, 1104.89 803.11, 1101.25 816.85 C 1097.61 830.58, 1095.73 836.88, 1093.69 844.83 C 1091.65 852.77, 1090.75 854.85, 1091.04 856.56 C 1091.33 858.26, 1094.33 858.18, 1095.14 853.36 C 1095.95 848.54, 1094.61 843.66, 1095.10 832.45 C 1095.59 821.23, 1096.38 813.35, 1097.58 797.28 C 1098.78 781.21, 1099.80 771.05, 1101.10 752.09 C 1102.41 733.14, 1103.28 721.83, 1104.12 702.50 C 1104.96 683.17, 1105.51 672.48, 1105.30 655.44 C 1105.08 638.41, 1104.67 630.03, 1103.03 617.32 C 1101.38 604.61, 1100.75 599.09, 1097.06 591.89 C 1093.36 584.70, 1090.07 581.75, 1084.55 581.35 C 1079.04 580.95, 1075.52 583.96, 1069.48 589.90 C 1063.44 595.84, 1060.74 600.22, 1054.35 611.07 C 1047.96 621.93, 1044.31 628.85, 1037.52 644.17 C 1030.73 659.48, 1026.95 669.06, 1020.39 687.67 C 1013.82 706.27, 1010.45 717.48, 1004.71 737.19 C 998.97 756.90, 996.38 768.23, 991.70 786.22 C 987.03 804.21, 984.98 813.59, 981.33 827.15 C 977.69 840.71, 975.56 846.83, 973.46 854.02 C 971.36 861.20, 971.15 862.32, 970.83 863.08 C 970.52 863.83, 971.96 863.43, 971.90 857.79 C 971.84 852.16, 970.50 846.86, 970.56 834.89 C 970.61 822.93, 971.14 814.57, 972.18 797.96 C 973.22 781.36, 974.25 771.00, 975.77 751.86 C 977.29 732.73, 978.38 721.24, 979.78 702.30 C 981.19 683.36, 982.15 672.75, 982.78 657.18 C 983.41 641.60, 983.76 634.45, 982.94 624.41 C 982.12 614.37, 981.95 609.26, 978.69 606.96 C 975.43 604.66, 971.20 606.83, 966.65 612.90 C 962.10 618.98, 960.74 624.94, 955.92 637.34 C 951.11 649.75, 948.25 658.02, 942.59 674.93 C 936.92 691.83, 933.65 702.36, 927.61 721.87 C 921.56 741.39, 918.30 752.96, 912.35 772.49 C 906.40 792.03, 903.41 802.73, 897.84 819.56 C 892.28 836.39, 889.50 844.62, 884.53 856.64 C 879.55 868.67, 876.73 873.65, 872.97 879.69 C 869.21 885.73, 868.00 886.10, 865.72 886.86 C 863.45 887.62, 863.65 887.99, 861.59 883.50 C 859.53 879.00, 857.45 874.87, 855.43 864.38 C 853.42 853.88, 852.53 846.49, 851.52 831.01 C 850.51 815.54, 850.47 805.81, 850.39 787.01 C 850.31 768.21, 850.62 756.97, 851.13 737.01 C 851.64 717.06, 852.23 705.38, 852.94 687.23 C 853.65 669.08, 854.16 659.27, 854.67 646.25 C 855.18 633.23, 857.00 627.85, 855.48 622.14 C 853.96 616.43, 849.70 614.88, 847.08 617.70 C 844.45 620.52, 844.87 625.67, 842.34 636.24 C 839.82 646.81, 838.30 655.09, 834.44 670.55 C 830.58 686.01, 828.07 695.44, 823.05 713.55 C 818.03 731.67, 815.10 742.49, 809.32 761.14 C 803.54 779.79, 800.41 790.14, 794.15 806.82 C 787.90 823.50, 784.41 831.81, 778.05 844.52 C 771.69 857.23, 768.15 862.78, 762.33 870.36 C 756.52 877.95, 753.55 879.92, 748.98 882.45 C 744.41 884.98, 743.30 885.07, 739.49 883.01 C 735.68 880.95, 733.26 879.31, 729.91 872.15 C 726.57 864.99, 724.59 859.54, 722.78 847.21 C 720.98 834.87, 720.43 826.78, 720.88 810.48 C 721.33 794.19, 722.27 784.09, 725.01 765.75 C 727.75 747.41, 729.91 736.79, 734.57 718.78 C 739.22 700.77, 742.26 691.27, 748.28 675.72 C 754.30 660.17, 757.98 652.76, 764.66 641.04 C 771.35 629.33, 775.19 624.59, 781.73 617.15 C 788.26 609.71, 791.73 607.44, 797.34 603.83 C 802.96 600.23, 805.64 599.86, 809.80 599.13 C 813.95 598.39, 815.29 599.14, 818.11 600.15 C 820.93 601.17, 821.52 602.15, 823.91 604.19 C 826.30 606.24, 827.66 607.94, 830.06 610.40 C 832.47 612.85, 833.09 615.22, 835.95 616.45 C 838.81 617.67, 841.29 618.10, 844.35 616.50 C 847.40 614.89, 850.08 611.64, 851.24 608.41"
    />
    <path
        d="M 1355.66,421.21 C 1353.87 422.88, 1355.13 423.90, 1355.01 429.60 C 1354.88 435.29, 1355.18 438.92, 1355.02 449.70 C 1354.86 460.47, 1354.79 467.48, 1354.22 483.49 C 1353.64 499.50, 1353.35 509.58, 1352.15 529.75 C 1350.96 549.91, 1350.02 561.57, 1348.25 584.32 C 1346.48 607.07, 1345.38 619.64, 1343.29 643.49 C 1341.20 667.34, 1339.92 680.24, 1337.81 703.59 C 1335.70 726.94, 1334.47 739.02, 1332.72 760.24 C 1330.98 781.47, 1329.98 791.87, 1329.07 809.70 C 1328.15 827.53, 1327.86 835.72, 1328.14 849.41 C 1328.42 863.09, 1328.69 868.74, 1330.48 878.13 C 1332.26 887.51, 1333.01 891.20, 1337.08 896.33 C 1341.15 901.46, 1344.55 903.20, 1350.81 903.79 C 1357.08 904.38, 1360.80 902.73, 1368.39 899.28 C 1375.98 895.83, 1379.93 892.77, 1388.77 886.55 C 1397.60 880.32, 1402.58 876.12, 1412.56 868.17 C 1422.55 860.23, 1428.15 855.34, 1438.69 846.80 C 1449.23 838.26, 1454.94 833.50, 1465.27 825.47 C 1475.60 817.43, 1480.95 813.35, 1490.32 806.62 C 1499.70 799.89, 1504.54 796.73, 1512.12 791.80 C 1519.71 786.88, 1523.20 785.15, 1528.27 781.99 C 1533.33 778.82, 1536.34 778.38, 1537.44 775.98 C 1538.54 773.58, 1536.41 770.08, 1533.75 769.98 C 1531.10 769.89, 1529.29 772.27, 1524.18 775.49 C 1519.08 778.71, 1515.71 780.79, 1508.24 786.08 C 1500.78 791.37, 1496.13 794.91, 1486.86 801.93 C 1477.60 808.95, 1472.26 813.09, 1461.93 821.20 C 1451.60 829.31, 1445.85 834.06, 1435.23 842.48 C 1424.60 850.90, 1418.91 855.71, 1408.80 863.31 C 1398.69 870.91, 1393.46 874.84, 1384.68 880.48 C 1375.91 886.13, 1371.60 888.60, 1364.92 891.54 C 1358.24 894.48, 1355.68 895.16, 1351.26 895.19 C 1346.84 895.22, 1345.86 895.34, 1342.82 891.69 C 1339.78 888.03, 1338.12 885.41, 1336.06 876.92 C 1334.00 868.44, 1333.21 862.66, 1332.53 849.25 C 1331.85 835.84, 1331.99 827.61, 1332.66 809.86 C 1333.33 792.11, 1334.26 781.70, 1335.89 760.50 C 1337.52 739.30, 1338.72 727.20, 1340.80 703.86 C 1342.89 680.51, 1344.16 667.61, 1346.31 643.76 C 1348.46 619.91, 1349.60 607.34, 1351.55 584.59 C 1353.51 561.84, 1354.51 550.18, 1356.08 530.01 C 1357.64 509.85, 1358.14 499.77, 1359.37 483.78 C 1360.59 467.80, 1361.17 460.85, 1362.20 450.09 C 1363.22 439.33, 1364.15 435.76, 1364.50 430.00 C 1364.85 424.23, 1365.74 423.03, 1363.97 421.27 C 1362.20 419.52, 1357.45 419.55, 1355.66 421.21"
    />
    <path
        d="M 1676.82,619.44 C 1678.15 616.22, 1677.86 613.77, 1676.04 610.86 C 1674.21 607.95, 1671.84 606.99, 1667.68 604.89 C 1663.52 602.79, 1660.59 601.08, 1655.25 600.38 C 1649.91 599.68, 1646.81 599.74, 1640.96 601.40 C 1635.12 603.07, 1632.24 604.31, 1626.02 608.71 C 1619.79 613.11, 1616.56 615.71, 1609.82 623.40 C 1603.08 631.09, 1599.31 635.72, 1592.32 647.14 C 1585.33 658.57, 1581.38 665.59, 1574.85 680.52 C 1568.32 695.45, 1564.77 704.46, 1559.65 721.79 C 1554.54 739.12, 1552.15 749.25, 1549.29 767.17 C 1546.42 785.10, 1545.50 794.92, 1545.34 811.42 C 1545.17 827.93, 1545.81 836.28, 1548.46 849.68 C 1551.10 863.09, 1553.20 869.24, 1558.56 878.44 C 1563.92 887.65, 1567.58 891.42, 1575.27 895.69 C 1582.97 899.96, 1588.05 900.83, 1597.02 899.80 C 1606.00 898.77, 1611.03 896.60, 1620.15 890.55 C 1629.27 884.49, 1634.08 880.04, 1642.63 869.53 C 1651.19 859.01, 1655.55 852.33, 1662.93 837.97 C 1670.30 823.62, 1673.83 814.77, 1679.52 797.74 C 1685.22 780.72, 1687.69 770.80, 1691.39 752.87 C 1695.09 734.93, 1696.53 725.12, 1698.03 708.06 C 1699.52 691.01, 1699.60 682.26, 1698.86 667.59 C 1698.12 652.92, 1697.01 646.12, 1694.32 634.69 C 1691.63 623.26, 1689.58 618.47, 1685.42 610.44 C 1681.25 602.40, 1678.50 599.37, 1673.49 594.52 C 1668.48 589.67, 1665.52 587.89, 1660.36 586.17 C 1655.21 584.46, 1651.09 584.39, 1647.72 585.94 C 1644.35 587.48, 1643.33 591.25, 1643.52 593.90 C 1643.70 596.56, 1646.83 598.13, 1648.64 599.22 C 1650.45 600.31, 1650.79 599.67, 1652.56 599.36 C 1654.33 599.05, 1654.42 597.33, 1657.49 597.67 C 1660.57 598.01, 1663.49 597.87, 1667.94 601.06 C 1672.39 604.25, 1675.48 606.64, 1679.75 613.62 C 1684.01 620.60, 1686.32 625.13, 1689.26 635.97 C 1692.19 646.82, 1693.47 653.50, 1694.41 667.85 C 1695.35 682.20, 1695.36 690.88, 1693.97 707.72 C 1692.59 724.56, 1691.17 734.32, 1687.49 752.06 C 1683.80 769.79, 1681.30 779.65, 1675.55 796.40 C 1669.81 813.15, 1666.19 821.87, 1658.77 835.79 C 1651.34 849.72, 1646.83 856.13, 1638.41 866.01 C 1629.99 875.90, 1625.11 879.81, 1616.67 885.23 C 1608.24 890.65, 1603.89 892.14, 1596.22 893.13 C 1588.54 894.11, 1584.88 893.64, 1578.29 890.14 C 1571.70 886.65, 1568.31 883.93, 1563.26 875.65 C 1558.21 867.36, 1555.79 861.58, 1553.04 848.74 C 1550.29 835.90, 1549.47 827.64, 1549.52 811.45 C 1549.57 795.26, 1550.43 785.50, 1553.27 767.81 C 1556.10 750.12, 1558.50 740.07, 1563.69 723.00 C 1568.88 705.93, 1572.49 697.02, 1579.20 682.47 C 1585.91 667.93, 1590.00 661.06, 1597.22 650.28 C 1604.44 639.50, 1608.49 635.19, 1615.28 628.56 C 1622.08 621.93, 1625.60 620.02, 1631.20 617.13 C 1636.81 614.25, 1639.37 614.28, 1643.30 614.15 C 1647.23 614.03, 1648.20 615.02, 1650.86 616.50 C 1653.52 617.98, 1654.48 619.49, 1656.60 621.57 C 1658.73 623.64, 1658.93 625.80, 1661.49 626.87 C 1664.04 627.95, 1666.30 628.41, 1669.37 626.93 C 1672.44 625.44, 1675.49 622.65, 1676.82 619.44"
    />
    <path
        d="M 1758.91,591.35 C 1756.61 592.58, 1757.10 594.37, 1755.79 599.92 C 1754.48 605.47, 1753.92 609.13, 1752.36 619.12 C 1750.80 629.11, 1749.79 635.72, 1747.99 649.86 C 1746.20 664.01, 1745.07 672.76, 1743.40 689.84 C 1741.72 706.92, 1740.66 717.05, 1739.64 735.26 C 1738.61 753.47, 1738.08 763.56, 1738.26 780.89 C 1738.44 798.21, 1738.80 807.18, 1740.54 821.87 C 1742.28 836.56, 1743.49 843.38, 1746.96 854.32 C 1750.43 865.25, 1752.49 869.95, 1757.89 876.55 C 1763.28 883.15, 1766.87 885.79, 1773.94 887.33 C 1781.01 888.87, 1785.52 888.10, 1793.24 884.25 C 1800.96 880.41, 1804.77 877.02, 1812.53 868.10 C 1820.29 859.18, 1824.23 853.26, 1832.04 839.64 C 1839.85 826.03, 1843.95 817.41, 1851.58 800.02 C 1859.21 782.63, 1863.07 772.10, 1870.20 752.70 C 1877.32 733.31, 1880.95 722.16, 1887.20 703.02 C 1893.45 683.88, 1896.50 673.48, 1901.45 657.02 C 1906.40 640.56, 1908.60 632.40, 1911.95 620.71 C 1915.30 609.03, 1917.99 603.83, 1918.18 598.59 C 1918.37 593.36, 1914.27 591.81, 1912.91 594.55 C 1911.55 597.28, 1912.29 601.59, 1911.39 612.26 C 1910.49 622.93, 1909.76 631.19, 1908.42 647.91 C 1907.07 664.62, 1906.24 675.93, 1904.65 695.84 C 1903.06 715.74, 1901.92 727.39, 1900.48 747.42 C 1899.04 767.46, 1898.22 778.14, 1897.46 796.02 C 1896.70 813.89, 1896.44 822.64, 1896.67 836.79 C 1896.90 850.94, 1897.23 857.16, 1898.59 866.77 C 1899.95 876.38, 1899.98 880.35, 1903.48 884.84 C 1906.99 889.34, 1911.56 891.12, 1916.11 889.23 C 1920.66 887.34, 1922.29 883.53, 1926.23 875.42 C 1930.17 867.30, 1931.67 861.77, 1935.83 848.66 C 1939.99 835.54, 1942.18 827.02, 1947.03 809.84 C 1951.88 792.65, 1954.57 782.05, 1960.07 762.74 C 1965.56 743.43, 1968.60 732.35, 1974.52 713.28 C 1980.43 694.22, 1983.68 684.09, 1989.66 667.40 C 1995.63 650.71, 1998.79 642.44, 2004.39 629.84 C 2009.99 617.24, 2013.10 611.52, 2017.66 604.40 C 2022.22 597.28, 2024.75 595.88, 2027.19 594.23 C 2029.63 592.58, 2028.33 592.32, 2029.86 596.17 C 2031.40 600.03, 2033.30 603.60, 2034.88 613.51 C 2036.45 623.43, 2037.18 630.76, 2037.74 645.73 C 2038.29 660.70, 2038.19 670.35, 2037.63 688.37 C 2037.08 706.40, 2036.24 717.21, 2034.97 735.87 C 2033.69 754.52, 2032.66 764.79, 2031.25 781.65 C 2029.84 798.50, 2029.00 807.09, 2027.90 820.14 C 2026.80 833.19, 2025.77 838.94, 2025.75 846.90 C 2025.73 854.85, 2025.61 858.21, 2027.78 859.92 C 2029.94 861.63, 2033.95 860.68, 2036.58 855.44 C 2039.21 850.20, 2038.71 845.21, 2040.92 833.73 C 2043.14 822.26, 2044.14 814.03, 2047.65 798.08 C 2051.16 782.13, 2053.21 772.01, 2058.47 753.96 C 2063.74 735.91, 2067.06 725.49, 2073.97 707.83 C 2080.89 690.18, 2085.04 680.88, 2093.05 665.69 C 2101.05 650.50, 2105.70 643.22, 2114.00 631.88 C 2122.31 620.54, 2126.92 615.70, 2134.57 608.99 C 2142.21 602.28, 2146.24 600.36, 2152.24 598.34 C 2158.25 596.32, 2160.18 596.56, 2164.58 598.89 C 2168.99 601.22, 2170.86 602.91, 2174.27 609.96 C 2177.67 617.02, 2179.43 622.15, 2181.59 634.16 C 2183.76 646.17, 2184.43 654.10, 2185.09 670.01 C 2185.76 685.93, 2185.53 695.68, 2184.92 713.75 C 2184.31 731.82, 2183.33 742.23, 2182.04 760.37 C 2180.75 778.50, 2179.65 788.23, 2178.47 804.43 C 2177.30 820.63, 2176.66 828.57, 2176.15 841.35 C 2175.64 854.14, 2175.62 859.76, 2175.92 868.36 C 2176.22 876.95, 2176.45 879.93, 2177.64 884.34 C 2178.82 888.74, 2180.13 889.56, 2181.86 890.38 C 2183.59 891.21, 2185.60 890.02, 2186.29 888.45 C 2186.98 886.89, 2186.09 886.67, 2185.32 882.56 C 2184.54 878.45, 2183.24 876.14, 2182.40 867.92 C 2181.56 859.70, 2181.05 854.11, 2181.11 841.46 C 2181.17 828.82, 2181.72 820.88, 2182.72 804.71 C 2183.71 788.55, 2184.79 778.81, 2186.08 760.65 C 2187.37 742.49, 2188.40 732.08, 2189.19 713.92 C 2189.98 695.76, 2190.36 686.01, 2190.04 669.86 C 2189.72 653.71, 2189.45 645.79, 2187.59 633.18 C 2185.74 620.58, 2184.71 615.05, 2180.78 606.84 C 2176.86 598.63, 2174.12 595.11, 2167.97 592.14 C 2161.83 589.17, 2157.48 589.41, 2150.07 591.98 C 2142.66 594.54, 2138.84 597.50, 2130.90 604.96 C 2122.96 612.42, 2118.64 617.50, 2110.37 629.28 C 2102.09 641.05, 2097.53 648.42, 2089.52 663.84 C 2081.52 679.27, 2077.38 688.63, 2070.36 706.41 C 2063.33 724.19, 2059.99 734.66, 2054.41 752.74 C 2048.83 770.83, 2046.51 780.94, 2042.45 796.84 C 2038.39 812.74, 2036.87 820.99, 2034.12 832.24 C 2031.36 843.50, 2029.08 847.98, 2028.66 853.11 C 2028.23 858.23, 2031.28 859.07, 2032.01 857.85 C 2032.74 856.62, 2032.15 854.45, 2032.31 846.98 C 2032.48 839.50, 2032.21 833.47, 2032.83 820.47 C 2033.45 807.47, 2034.18 798.84, 2035.42 781.98 C 2036.66 765.11, 2037.68 754.84, 2039.02 736.15 C 2040.35 717.47, 2041.24 706.66, 2042.10 688.55 C 2042.96 670.44, 2043.36 660.82, 2043.32 645.62 C 2043.27 630.42, 2043.19 623.22, 2041.88 612.53 C 2040.57 601.85, 2040.36 597.18, 2036.78 592.18 C 2033.20 587.18, 2028.82 585.69, 2023.98 587.51 C 2019.15 589.34, 2017.36 593.20, 2012.60 601.31 C 2007.85 609.41, 2005.52 615.09, 2000.20 628.05 C 1994.88 641.01, 1991.85 649.29, 1986.01 666.12 C 1980.18 682.95, 1976.94 693.09, 1971.01 712.19 C 1965.07 731.30, 1962.01 742.39, 1956.33 761.66 C 1950.65 780.93, 1947.86 791.53, 1942.62 808.53 C 1937.37 825.54, 1934.78 834.02, 1930.11 846.70 C 1925.43 859.37, 1922.90 864.91, 1919.25 871.91 C 1915.59 878.91, 1913.71 879.94, 1911.84 881.69 C 1909.97 883.44, 1911.40 883.84, 1909.91 880.66 C 1908.41 877.48, 1906.12 874.60, 1904.37 865.80 C 1902.62 856.99, 1901.77 850.58, 1901.16 836.66 C 1900.55 822.73, 1900.70 813.96, 1901.31 796.16 C 1901.93 778.37, 1902.72 767.69, 1904.22 747.70 C 1905.72 727.71, 1906.90 716.06, 1908.81 696.20 C 1910.72 676.35, 1911.94 665.07, 1913.77 648.41 C 1915.59 631.76, 1916.67 623.65, 1917.93 612.92 C 1919.19 602.18, 1921.26 597.95, 1920.06 594.74 C 1918.86 591.53, 1914.55 591.94, 1911.94 596.87 C 1909.33 601.80, 1909.86 607.60, 1907.00 619.40 C 1904.14 631.21, 1902.28 639.40, 1897.63 655.90 C 1892.98 672.40, 1889.93 682.80, 1883.76 701.90 C 1877.58 721.01, 1873.93 732.14, 1866.74 751.43 C 1859.56 770.71, 1855.61 781.20, 1847.82 798.34 C 1840.02 815.48, 1835.74 823.99, 1827.76 837.11 C 1819.78 850.24, 1815.47 855.83, 1807.92 863.95 C 1800.36 872.08, 1796.48 874.50, 1789.99 877.72 C 1783.49 880.95, 1780.88 881.16, 1775.44 880.10 C 1770.01 879.04, 1767.52 877.92, 1762.82 872.43 C 1758.13 866.94, 1755.54 862.87, 1751.98 852.65 C 1748.41 842.42, 1746.91 835.67, 1744.99 821.31 C 1743.07 806.95, 1742.62 798.00, 1742.38 780.83 C 1742.14 763.67, 1742.66 753.60, 1743.79 735.51 C 1744.92 717.41, 1746.03 707.30, 1748.02 690.34 C 1750.02 673.39, 1751.36 664.66, 1753.76 650.72 C 1756.16 636.78, 1757.68 630.31, 1760.01 620.64 C 1762.34 610.96, 1763.96 607.72, 1765.41 602.35 C 1766.86 596.98, 1768.56 595.97, 1767.26 593.77 C 1765.96 591.57, 1761.20 590.12, 1758.91 591.35"
    />
    <path
        d="M 2373.87,639.26 C 2375.95 636.65, 2375.71 634.30, 2374.66 630.70 C 2373.60 627.10, 2371.90 625.04, 2368.59 621.28 C 2365.28 617.52, 2363.08 614.56, 2358.11 611.91 C 2353.13 609.26, 2349.85 608.08, 2343.70 608.03 C 2337.55 607.98, 2334.15 608.56, 2327.36 611.66 C 2320.57 614.77, 2317.05 616.86, 2309.77 623.56 C 2302.49 630.26, 2298.48 634.51, 2290.97 645.17 C 2283.46 655.84, 2279.29 662.68, 2272.22 676.89 C 2265.15 691.10, 2261.30 699.89, 2255.62 716.23 C 2249.94 732.58, 2247.22 742.31, 2243.83 758.61 C 2240.43 774.91, 2239.24 783.86, 2238.65 797.74 C 2238.06 811.63, 2238.39 818.20, 2240.87 828.05 C 2243.36 837.90, 2245.44 842.40, 2251.07 847.00 C 2256.69 851.60, 2261.38 852.56, 2269.01 851.04 C 2276.64 849.52, 2281.03 846.59, 2289.22 839.40 C 2297.40 832.21, 2301.67 826.95, 2309.94 815.09 C 2318.21 803.24, 2322.62 795.29, 2330.57 780.12 C 2338.51 764.96, 2342.62 755.59, 2349.65 739.26 C 2356.67 722.92, 2360.11 713.59, 2365.69 698.44 C 2371.27 683.29, 2373.87 674.49, 2377.53 663.51 C 2381.20 652.54, 2383.70 647.87, 2384.03 643.58 C 2384.36 639.28, 2380.28 638.29, 2379.18 642.05 C 2378.08 645.81, 2378.96 650.17, 2378.53 662.39 C 2378.10 674.62, 2377.81 683.79, 2377.04 703.16 C 2376.26 722.52, 2375.79 734.74, 2374.64 759.23 C 2373.48 783.73, 2372.83 797.73, 2371.26 825.63 C 2369.70 853.53, 2368.99 868.88, 2366.81 898.74 C 2364.63 928.61, 2363.47 944.81, 2360.36 974.96 C 2357.25 1005.10, 2355.47 1021.01, 2351.25 1049.46 C 2347.03 1077.92, 2344.76 1092.30, 2339.27 1117.22 C 2333.78 1142.14, 2330.53 1154.15, 2323.80 1174.08 C 2317.08 1194.01, 2313.26 1202.85, 2305.63 1216.86 C 2298.00 1230.87, 2293.86 1236.23, 2285.65 1244.14 C 2277.44 1252.05, 2272.96 1254.15, 2264.58 1256.43 C 2256.21 1258.70, 2252.06 1258.27, 2243.76 1255.53 C 2235.46 1252.79, 2231.10 1250.24, 2223.07 1242.72 C 2215.04 1235.21, 2210.60 1229.99, 2203.61 1217.94 C 2196.62 1205.90, 2193.01 1198.25, 2188.10 1182.49 C 2183.19 1166.73, 2181.10 1157.31, 2179.07 1139.15 C 2177.04 1121.00, 2176.69 1110.72, 2177.96 1091.71 C 2179.22 1072.70, 2180.64 1062.89, 2185.40 1044.11 C 2190.15 1025.32, 2193.47 1015.72, 2201.75 997.78 C 2210.02 979.83, 2215.27 971.02, 2226.78 954.39 C 2238.30 937.75, 2245.13 929.75, 2259.32 914.58 C 2273.51 899.42, 2281.51 892.16, 2297.75 878.57 C 2313.98 864.97, 2322.89 858.66, 2340.48 846.61 C 2358.07 834.56, 2367.62 829.09, 2385.69 818.32 C 2403.75 807.54, 2413.13 802.63, 2430.80 792.75 C 2448.48 782.87, 2457.44 778.29, 2474.06 768.92 C 2490.67 759.54, 2499.07 755.16, 2513.89 745.86 C 2528.71 736.56, 2535.86 731.98, 2548.15 722.41 C 2560.44 712.84, 2566.14 707.92, 2575.36 698.01 C 2584.58 688.10, 2588.53 682.90, 2594.25 672.84 C 2599.97 662.79, 2601.94 657.45, 2603.96 647.74 C 2605.99 638.03, 2606.01 632.92, 2604.38 624.29 C 2602.75 615.65, 2600.84 611.18, 2595.82 604.55 C 2590.80 597.92, 2587.09 594.74, 2579.28 591.14 C 2571.47 587.53, 2566.37 586.28, 2556.76 586.53 C 2547.15 586.78, 2541.48 587.79, 2531.25 592.38 C 2521.03 596.96, 2515.32 600.46, 2505.63 609.44 C 2495.94 618.42, 2490.75 624.32, 2482.81 637.28 C 2474.87 650.25, 2470.95 658.30, 2465.93 674.26 C 2460.91 690.21, 2458.89 699.69, 2457.73 717.07 C 2456.57 734.45, 2456.92 744.18, 2460.14 761.15 C 2463.35 778.11, 2466.19 787.03, 2473.82 801.90 C 2481.46 816.77, 2486.75 823.94, 2498.31 835.51 C 2509.86 847.08, 2517.22 852.00, 2531.60 859.74 C 2545.97 867.48, 2554.24 870.34, 2570.17 874.20 C 2586.09 878.06, 2594.69 879.26, 2611.21 879.04 C 2627.73 878.82, 2637.85 876.46, 2652.75 873.10 C 2667.66 869.74, 2674.90 866.54, 2685.74 862.24 C 2696.57 857.94, 2703.16 854.65, 2706.93 851.61 C 2710.71 848.58, 2709.22 845.84, 2704.62 847.07 C 2700.02 848.31, 2694.53 853.48, 2683.95 857.77 C 2673.36 862.07, 2666.27 865.15, 2651.71 868.55 C 2637.15 871.95, 2627.25 874.45, 2611.14 874.78 C 2595.02 875.10, 2586.65 873.92, 2571.13 870.19 C 2555.61 866.46, 2547.53 863.63, 2533.54 856.12 C 2519.55 848.61, 2512.40 843.86, 2501.17 832.65 C 2489.94 821.44, 2484.81 814.52, 2477.39 800.07 C 2469.97 785.62, 2467.19 776.95, 2464.08 760.40 C 2460.97 743.86, 2460.64 734.31, 2461.85 717.35 C 2463.06 700.39, 2465.10 691.09, 2470.12 675.59 C 2475.14 660.10, 2479.10 652.26, 2486.95 639.86 C 2494.80 627.45, 2500.00 621.88, 2509.37 613.57 C 2518.75 605.26, 2524.32 602.25, 2533.82 598.31 C 2543.31 594.36, 2548.43 593.87, 2556.87 593.86 C 2565.30 593.85, 2569.41 595.17, 2575.97 598.25 C 2582.53 601.33, 2585.38 603.78, 2589.66 609.27 C 2593.94 614.76, 2595.75 618.25, 2597.39 625.70 C 2599.02 633.16, 2599.40 637.65, 2597.83 646.56 C 2596.26 655.46, 2594.72 660.58, 2589.53 670.23 C 2584.35 679.89, 2580.69 685.07, 2571.90 694.85 C 2563.11 704.64, 2557.59 709.59, 2545.59 719.16 C 2533.58 728.72, 2526.53 733.34, 2511.88 742.68 C 2497.23 752.03, 2488.88 756.45, 2472.33 765.88 C 2455.79 775.32, 2446.84 779.92, 2429.18 789.85 C 2411.52 799.78, 2402.13 804.72, 2384.03 815.54 C 2365.93 826.36, 2356.34 831.85, 2338.67 843.96 C 2321.00 856.07, 2312.03 862.42, 2295.68 876.10 C 2279.33 889.77, 2271.26 897.07, 2256.93 912.35 C 2242.61 927.62, 2235.70 935.68, 2224.04 952.48 C 2212.38 969.29, 2207.06 978.20, 2198.65 996.35 C 2190.25 1014.50, 2186.87 1024.22, 2182.00 1043.24 C 2177.13 1062.26, 2175.67 1072.19, 2174.29 1091.45 C 2172.92 1110.72, 2173.22 1121.11, 2175.13 1139.58 C 2177.04 1158.04, 2179.04 1167.60, 2183.84 1183.78 C 2188.65 1199.96, 2192.10 1207.85, 2199.15 1220.48 C 2206.20 1233.11, 2210.53 1238.79, 2219.08 1246.94 C 2227.64 1255.10, 2232.53 1258.30, 2241.93 1261.25 C 2251.32 1264.19, 2256.70 1264.45, 2266.08 1261.66 C 2275.45 1258.88, 2280.25 1255.95, 2288.80 1247.33 C 2297.34 1238.71, 2301.23 1233.01, 2308.80 1218.55 C 2316.36 1204.09, 2320.02 1195.18, 2326.62 1175.02 C 2333.22 1154.86, 2336.39 1142.81, 2341.79 1117.77 C 2347.19 1092.73, 2349.44 1078.33, 2353.62 1049.81 C 2357.80 1021.30, 2359.57 1005.37, 2362.69 975.20 C 2365.81 945.02, 2366.98 928.81, 2369.23 898.92 C 2371.48 869.04, 2372.21 853.69, 2373.95 825.79 C 2375.69 797.89, 2376.39 783.89, 2377.91 759.41 C 2379.43 734.93, 2380.24 722.74, 2381.57 703.40 C 2382.89 684.06, 2383.61 675.04, 2384.52 662.72 C 2385.44 650.40, 2387.50 646.12, 2386.13 641.82 C 2384.76 637.51, 2380.48 637.18, 2377.67 641.18 C 2374.87 645.18, 2375.36 650.67, 2372.11 661.82 C 2368.86 672.97, 2366.72 681.77, 2361.44 696.92 C 2356.16 712.07, 2352.70 721.36, 2345.71 737.56 C 2338.72 753.77, 2334.52 763.08, 2326.47 777.94 C 2318.42 792.81, 2313.78 800.60, 2305.47 811.89 C 2297.16 823.18, 2292.52 827.98, 2284.91 834.41 C 2277.31 840.83, 2273.37 842.54, 2267.45 844.02 C 2261.54 845.49, 2259.55 845.27, 2255.34 841.79 C 2251.13 838.31, 2248.79 835.38, 2246.41 826.61 C 2244.04 817.83, 2243.14 811.33, 2243.48 797.91 C 2243.83 784.49, 2244.88 775.54, 2248.15 759.50 C 2251.42 743.46, 2254.12 733.78, 2259.82 717.71 C 2265.52 701.64, 2269.44 692.94, 2276.64 679.14 C 2283.84 665.35, 2288.19 658.67, 2295.81 648.73 C 2303.44 638.78, 2307.74 634.97, 2314.79 629.42 C 2321.83 623.88, 2325.45 622.73, 2331.02 621.00 C 2336.58 619.26, 2338.96 619.95, 2342.60 620.75 C 2346.23 621.55, 2346.93 622.70, 2349.20 624.99 C 2351.46 627.27, 2352.26 629.23, 2353.93 632.18 C 2355.60 635.12, 2355.50 637.40, 2357.57 639.71 C 2359.63 642.03, 2360.98 643.85, 2364.24 643.76 C 2367.50 643.67, 2371.79 641.88, 2373.87 639.26"
    />
</svg>